<svg
   xmlns="http://www.w3.org/2000/svg"
   id="svg1503"
   version="1.1"
   viewBox="0 0 58.676762 20.780184"
   preserveAspectRatio="xMidyMid meet">
  <g
     id="layer1">
    <path
       id="path2118"
       style="font-style:normal;font-variant:normal;font-weight:bold;font-stretch:normal;font-size:8.39107227px;line-height:1.29999995;font-family:'Plus Jakarta Sans';-inkscape-font-specification:'Plus Jakarta Sans Bold';letter-spacing:0px;word-spacing:0px;fill:#ffffff;fill-opacity:1;stroke:none;stroke-width:0.39291567"
       d="m 2.8e-6,20.679494 v -6.25135 h 1.090839 l 2.341109,3.18022 h -0.520246 l 2.2907628,-3.18022 h 1.090839 v 6.25135 h -1.149577 v -4.95073 l 0.444727,0.10908 -2.3746728,3.16343 h -0.134258 l -2.315936,-3.16343 0.377599,-0.10908 v 4.95073 z" />
    <path
       id="path2120"
       style="font-style:normal;font-variant:normal;font-weight:bold;font-stretch:normal;font-size:8.39107227px;line-height:1.29999995;font-family:'Plus Jakarta Sans';-inkscape-font-specification:'Plus Jakarta Sans Bold';letter-spacing:0px;word-spacing:0px;fill:#ffffff;fill-opacity:1;stroke:none;stroke-width:0.39291567"
       d="m 8.1311566,20.679494 v -6.25135 h 1.1411861 v 6.25135 z" />
    <path
       id="path2122"
       style="font-style:normal;font-variant:normal;font-weight:bold;font-stretch:normal;font-size:8.39107227px;line-height:1.29999995;font-family:'Plus Jakarta Sans';-inkscape-font-specification:'Plus Jakarta Sans Bold';letter-spacing:0px;word-spacing:0px;fill:#ffffff;fill-opacity:1;stroke:none;stroke-width:0.39291567"
       d="m 11.269672,20.679494 v -6.25135 h 0.889453 l 3.44034,4.63187 -0.461509,0.0923 v -4.72417 h 1.141186 v 6.25135 h -0.897845 l -3.389993,-4.66544 0.419553,-0.0923 v 4.75774 z" />
    <path
       id="path2124"
       style="font-style:normal;font-variant:normal;font-weight:bold;font-stretch:normal;font-size:8.39107227px;line-height:1.29999995;font-family:'Plus Jakarta Sans';-inkscape-font-specification:'Plus Jakarta Sans Bold';letter-spacing:0px;word-spacing:0px;fill:#ffffff;fill-opacity:1;stroke:none;stroke-width:0.39291567"
       d="m 18.284862,20.679494 v -6.25135 h 1.141185 v 6.25135 z" />
    <path
       id="path2126"
       style="font-style:normal;font-variant:normal;font-weight:bold;font-stretch:normal;font-size:8.39107227px;line-height:1.29999995;font-family:'Plus Jakarta Sans';-inkscape-font-specification:'Plus Jakarta Sans Bold';letter-spacing:0px;word-spacing:0px;fill:#ffffff;fill-opacity:1;stroke:none;stroke-width:0.39291567"
       d="m 21.071003,20.679494 2.156505,-6.25135 h 1.476829 l 2.156506,6.25135 h -1.241879 l -0.444727,-1.34257 h -2.416629 l -0.453118,1.34257 z m 2.013857,-2.3495 h 1.762125 l -1.040493,-3.11309 h 0.318861 z" />
    <path
       id="path2128"
       style="font-style:normal;font-variant:normal;font-weight:bold;font-stretch:normal;font-size:8.39107227px;line-height:1.29999995;font-family:'Plus Jakarta Sans';-inkscape-font-specification:'Plus Jakarta Sans Bold';letter-spacing:0px;word-spacing:0px;fill:#ffffff;fill-opacity:1;stroke:none;stroke-width:0.39291567"
       d="m 28.824404,20.679494 v -5.24442 h -1.619477 v -1.00693 h 4.363358 v 1.00693 h -1.594304 v 5.24442 z" />
    <path
       id="path2130"
       style="font-style:normal;font-variant:normal;font-weight:bold;font-stretch:normal;font-size:8.39107227px;line-height:1.29999995;font-family:'Plus Jakarta Sans';-inkscape-font-specification:'Plus Jakarta Sans Bold';letter-spacing:0px;word-spacing:0px;fill:#ffffff;fill-opacity:1;stroke:none;stroke-width:0.39291567"
       d="m 35.470394,20.780184 q -0.721633,0 -1.283835,-0.30208 -0.55381,-0.30207 -0.872671,-0.83071 -0.318861,-0.52864 -0.318861,-1.19993 v -4.01932 h 1.141186 v 3.96059 q 0,0.38599 0.167821,0.69646 0.176213,0.31047 0.478292,0.48668 0.302078,0.16782 0.688068,0.16782 0.39438,0 0.688067,-0.16782 0.302079,-0.17621 0.4699,-0.48668 0.176213,-0.31047 0.176213,-0.69646 v -3.96059 h 1.141186 v 4.01932 q 0,0.67129 -0.318861,1.19993 -0.318861,0.52864 -0.881062,0.83071 -0.553811,0.30208 -1.275443,0.30208 z" />
    <path
       id="path2132"
       style="font-style:normal;font-variant:normal;font-weight:bold;font-stretch:normal;font-size:8.39107227px;line-height:1.29999995;font-family:'Plus Jakarta Sans';-inkscape-font-specification:'Plus Jakarta Sans Bold';letter-spacing:0px;word-spacing:0px;fill:#ffffff;fill-opacity:1;stroke:none;stroke-width:0.39291567"
       d="m 39.565379,20.679494 v -6.25135 h 2.324327 q 0.637722,0 1.124404,0.23495 0.495073,0.22656 0.771979,0.67129 0.276905,0.43633 0.276905,1.06566 0,0.64612 -0.31047,1.09923 -0.302078,0.45312 -0.822325,0.67129 l 1.434874,2.50893 h -1.292226 l -1.535566,-2.74388 0.738415,0.43633 h -1.569131 v 2.30755 z m 1.141186,-3.31447 h 1.199923 q 0.31047,0 0.537029,-0.11748 0.226559,-0.12587 0.352425,-0.34403 0.125866,-0.21817 0.125866,-0.50347 0,-0.29368 -0.125866,-0.50346 -0.125866,-0.21817 -0.352425,-0.33565 -0.226559,-0.12586 -0.537029,-0.12586 h -1.199923 z" />
    <path
       id="path2134"
       style="font-style:normal;font-variant:normal;font-weight:bold;font-stretch:normal;font-size:8.39107227px;line-height:1.29999995;font-family:'Plus Jakarta Sans';-inkscape-font-specification:'Plus Jakarta Sans Bold';letter-spacing:0px;word-spacing:0px;fill:#ffffff;fill-opacity:1;stroke:none;stroke-width:0.39291567"
       d="m 46.068767,20.679494 v -6.25135 h 4.15358 v 1.00693 h -3.012395 v 1.60269 h 2.844574 v 1.00693 h -2.844574 v 1.62787 h 3.012395 v 1.00693 z" />
    <path
       id="path2137"
       style="font-style:normal;font-variant:normal;font-weight:bold;font-stretch:normal;font-size:10.82385159px;line-height:1.29999995;font-family:'Plus Jakarta Sans';-inkscape-font-specification:'Plus Jakarta Sans Bold';letter-spacing:0px;word-spacing:0px;fill:#ffffff;fill-opacity:1;stroke:none;stroke-width:0.40218645"
       d="m 0.8401675,13.001224 v -2.72075 H 0 V 9.7580841 H 2.2636662 V 10.280474 H 1.4365577 v 2.72075 z" />
    <path
       id="path2139"
       style="font-style:normal;font-variant:normal;font-weight:bold;font-stretch:normal;font-size:10.82385159px;line-height:1.29999995;font-family:'Plus Jakarta Sans';-inkscape-font-specification:'Plus Jakarta Sans Bold';letter-spacing:0px;word-spacing:0px;fill:#ffffff;fill-opacity:1;stroke:none;stroke-width:0.40218645"
       d="M 2.6249825,13.001224 V 9.7580841 H 3.2170171 V 11.172874 H 4.5969836 V 9.7580841 h 0.59639 v 3.2431399 h -0.59639 v -1.30596 H 3.2170171 v 1.30596 z" />
    <path
       id="path2141"
       style="font-style:normal;font-variant:normal;font-weight:bold;font-stretch:normal;font-size:10.82385159px;line-height:1.29999995;font-family:'Plus Jakarta Sans';-inkscape-font-specification:'Plus Jakarta Sans Bold';letter-spacing:0px;word-spacing:0px;fill:#ffffff;fill-opacity:1;stroke:none;stroke-width:0.40218645"
       d="M 5.8158816,13.001224 V 9.7580841 h 2.154835 v 0.5223899 h -1.562801 v 0.83146 h 1.475739 v 0.52239 h -1.475739 v 0.84451 h 1.562801 v 0.52239 z" />
    <path
       id="path2143"
       style="font-style:normal;font-variant:normal;font-weight:bold;font-stretch:normal;font-size:10.82385159px;line-height:1.29999995;font-family:'Plus Jakarta Sans';-inkscape-font-specification:'Plus Jakarta Sans Bold';letter-spacing:0px;word-spacing:0px;fill:#ffffff;fill-opacity:1;stroke:none;stroke-width:0.40218645"
       d="M 9.1809037,13.001224 V 9.7580841 H 11.335742 V 10.280474 H 9.7729377 v 0.83146 h 1.4757393 v 0.52239 H 9.7729377 v 0.84451 h 1.5628043 v 0.52239 z" />
    <path
       id="path2145"
       style="font-style:normal;font-variant:normal;font-weight:bold;font-stretch:normal;font-size:10.82385159px;line-height:1.29999995;font-family:'Plus Jakarta Sans';-inkscape-font-specification:'Plus Jakarta Sans Bold';letter-spacing:0px;word-spacing:0px;fill:#ffffff;fill-opacity:1;stroke:none;stroke-width:0.40218645"
       d="M 11.771065,13.001224 V 9.7580841 h 0.461428 l 1.784823,2.4029699 -0.239421,0.0479 V 9.7580941 h 0.592018 v 3.2431399 h -0.465772 l -1.758721,-2.42038 0.217663,-0.0479 v 2.46827 z" />
    <path
       id="path2147"
       style="font-style:normal;font-variant:normal;font-weight:bold;font-stretch:normal;font-size:10.82385159px;line-height:1.29999995;font-family:'Plus Jakarta Sans';-inkscape-font-specification:'Plus Jakarta Sans Bold';letter-spacing:0px;word-spacing:0px;fill:#ffffff;fill-opacity:1;stroke:none;stroke-width:0.40218645"
       d="m 16.533475,13.053464 q -0.348253,0 -0.644303,-0.12624 -0.296009,-0.12625 -0.518016,-0.35261 -0.222007,-0.22637 -0.348253,-0.53109 -0.121903,-0.30473 -0.121903,-0.66604 0,-0.36132 0.117559,-0.66605 0.121863,-0.30907 0.339526,-0.53109 0.222007,-0.2263599 0.518057,-0.3482499 0.296009,-0.12625 0.644262,-0.12625 0.348253,0 0.622504,0.11754 0.278595,0.11754 0.470156,0.3134299 0.191521,0.19154 0.274251,0.42226 l -0.526743,0.25249 q -0.09142,-0.25249 -0.309081,-0.4092 -0.217663,-0.15672 -0.531087,-0.15672 -0.304737,0 -0.539815,0.14365 -0.230694,0.14366 -0.361284,0.39615 -0.126246,0.25249 -0.126246,0.59204 0,0.33954 0.13059,0.59639 0.134934,0.25248 0.370012,0.39614 0.235077,0.14365 0.539814,0.14365 0.248109,0 0.457085,-0.0958 0.208936,-0.10012 0.335182,-0.27861 0.126247,-0.18283 0.126247,-0.43096 v -0.24811 l 0.269907,0.23508 h -1.201492 v -0.50062 h 1.523603 v 0.32649 q 0,0.37438 -0.126206,0.66169 -0.126246,0.28731 -0.34391,0.4832 -0.213319,0.19155 -0.483227,0.29167 -0.269907,0.0958 -0.557189,0.0958 z" />
    <path
       id="path2149"
       style="font-style:normal;font-variant:normal;font-weight:bold;font-stretch:normal;font-size:10.82385159px;line-height:1.29999995;font-family:'Plus Jakarta Sans';-inkscape-font-specification:'Plus Jakarta Sans Bold';letter-spacing:0px;word-spacing:0px;fill:#ffffff;fill-opacity:1;stroke:none;stroke-width:0.40218645"
       d="M 18.514163,13.001224 V 9.7580841 h 0.592059 v 2.7207499 h 1.388669 v 0.52239 z" />
    <path
       id="path2151"
       style="font-style:normal;font-variant:normal;font-weight:bold;font-stretch:normal;font-size:10.82385159px;line-height:1.29999995;font-family:'Plus Jakarta Sans';-inkscape-font-specification:'Plus Jakarta Sans Bold';letter-spacing:0px;word-spacing:0px;fill:#ffffff;fill-opacity:1;stroke:none;stroke-width:0.40218645"
       d="M 20.877974,13.001224 V 9.7580841 h 0.592018 v 3.2431399 z" />
    <path
       id="path2153"
       style="font-style:normal;font-variant:normal;font-weight:bold;font-stretch:normal;font-size:10.82385159px;line-height:1.29999995;font-family:'Plus Jakarta Sans';-inkscape-font-specification:'Plus Jakarta Sans Bold';letter-spacing:0px;word-spacing:0px;fill:#ffffff;fill-opacity:1;stroke:none;stroke-width:0.40218645"
       d="m 23.250431,13.053464 q -0.30904,0 -0.574603,-0.11318 -0.26118,-0.11319 -0.452742,-0.31344 -0.187177,-0.2046 -0.274251,-0.4745 l 0.491915,-0.2133 q 0.117559,0.2786 0.339566,0.43967 0.222006,0.15672 0.500601,0.15672 0.156732,0 0.269907,-0.0479 0.117519,-0.0522 0.178491,-0.1393 0.06527,-0.0871 0.06527,-0.20896 0,-0.14365 -0.08707,-0.23507 -0.08269,-0.0958 -0.252452,-0.14801 l -0.622504,-0.20024 q -0.378739,-0.11754 -0.570301,-0.35262 -0.191521,-0.23507 -0.191521,-0.55285 0,-0.27861 0.134934,-0.49191 0.139317,-0.2133099 0.383082,-0.3308499 0.248149,-0.12189 0.565917,-0.12189 0.291665,0 0.535471,0.10448 0.243765,0.10012 0.417871,0.2829599 0.178491,0.17848 0.265564,0.42226 l -0.48757,0.21766 q -0.09576,-0.24378 -0.287282,-0.37437 -0.191562,-0.13495 -0.444054,-0.13495 -0.148005,0 -0.26118,0.0522 -0.113175,0.0479 -0.178491,0.13931 -0.06093,0.0871 -0.06093,0.20895 0,0.13495 0.08707,0.23942 0.08703,0.10013 0.265523,0.15672 l 0.596402,0.18719 q 0.387427,0.12624 0.578948,0.34826 0.195905,0.22201 0.195905,0.5485 0,0.27861 -0.143661,0.49191 -0.143661,0.21331 -0.396114,0.3352 -0.252492,0.12189 -0.587715,0.12189 z" />
    <path
       id="path2155"
       style="font-style:normal;font-variant:normal;font-weight:bold;font-stretch:normal;font-size:10.82385159px;line-height:1.29999995;font-family:'Plus Jakarta Sans';-inkscape-font-specification:'Plus Jakarta Sans Bold';letter-spacing:0px;word-spacing:0px;fill:#ffffff;fill-opacity:1;stroke:none;stroke-width:0.40218645"
       d="M 24.909008,13.001224 V 9.7580841 h 0.592059 v 1.4147899 h 1.379942 V 9.7580841 h 0.596402 v 3.2431399 h -0.596402 v -1.30596 h -1.379942 v 1.30596 z" />
    <path
       id="path2157"
       style="font-style:normal;font-variant:normal;font-weight:bold;font-stretch:normal;font-size:10.82385159px;line-height:1.29999995;font-family:'Plus Jakarta Sans';-inkscape-font-specification:'Plus Jakarta Sans Bold';letter-spacing:0px;word-spacing:0px;fill:#ffffff;fill-opacity:1;stroke:none;stroke-width:0.40218645"
       d="M 28.874767,13.001224 V 9.7580841 h 1.21022 q 0.330838,0 0.583331,0.12189 0.256836,0.11754 0.400497,0.3482599 0.143661,0.22636 0.143661,0.55285 0,0.32214 -0.148045,0.55286 -0.14362,0.22637 -0.396113,0.34826 -0.252493,0.12189 -0.583331,0.12189 h -0.618161 v 1.19713 z m 0.592059,-1.71952 h 0.626848 q 0.161076,0 0.278635,-0.0609 0.117519,-0.0653 0.182834,-0.17848 0.06527,-0.11319 0.06527,-0.2612 0,-0.15236 -0.06527,-0.26119 -0.06531,-0.11318 -0.182834,-0.17412 -0.117559,-0.0653 -0.278635,-0.0653 h -0.626848 z" />
    <path
       id="path2159"
       style="font-style:normal;font-variant:normal;font-weight:bold;font-stretch:normal;font-size:10.82385159px;line-height:1.29999995;font-family:'Plus Jakarta Sans';-inkscape-font-specification:'Plus Jakarta Sans Bold';letter-spacing:0px;word-spacing:0px;fill:#ffffff;fill-opacity:1;stroke:none;stroke-width:0.40218645"
       d="m 33.293268,13.053464 q -0.35694,0 -0.666021,-0.12624 -0.30908,-0.12625 -0.539814,-0.35261 -0.230694,-0.22637 -0.361284,-0.53109 -0.126247,-0.30908 -0.126247,-0.66604 0,-0.36132 0.126247,-0.66605 0.126206,-0.30472 0.35694,-0.53109 0.230735,-0.2263599 0.539815,-0.3482499 0.30908,-0.12625 0.670364,-0.12625 0.361325,0 0.670405,0.12625 0.30908,0.12624 0.539814,0.3525999 0.230695,0.22202 0.356941,0.52674 0.13059,0.30473 0.13059,0.66605 0,0.35696 -0.13059,0.66604 -0.13059,0.30472 -0.361324,0.53109 -0.230694,0.22636 -0.539775,0.35261 -0.304736,0.12624 -0.666061,0.12624 z m 0,-0.5398 q 0.239462,0 0.439711,-0.0827 0.200208,-0.0871 0.348253,-0.23943 0.152348,-0.15236 0.230694,-0.36131 0.08273,-0.20896 0.08273,-0.45273 0,-0.24379 -0.08273,-0.44839 -0.07835,-0.20895 -0.230694,-0.36131 -0.148045,-0.15672 -0.348253,-0.23943 -0.200249,-0.0827 -0.439711,-0.0827 -0.235038,0 -0.435286,0.0827 -0.200249,0.0827 -0.352637,0.23943 -0.148005,0.15236 -0.230694,0.36131 -0.08273,0.2046 -0.08273,0.44839 0,0.24377 0.08273,0.45273 0.08269,0.20895 0.230694,0.36131 0.152388,0.15236 0.352637,0.23943 0.200248,0.0827 0.435286,0.0827 z" />
    <path
       id="path2161"
       style="font-style:normal;font-variant:normal;font-weight:bold;font-stretch:normal;font-size:10.82385159px;line-height:1.29999995;font-family:'Plus Jakarta Sans';-inkscape-font-specification:'Plus Jakarta Sans Bold';letter-spacing:0px;word-spacing:0px;fill:#ffffff;fill-opacity:1;stroke:none;stroke-width:0.40218645"
       d="M 35.517762,13.001224 V 9.7580841 h 1.205835 q 0.330838,0 0.583331,0.12189 0.256836,0.11754 0.400497,0.3482599 0.143661,0.22636 0.143661,0.55285 0,0.3352 -0.161075,0.57028 -0.156692,0.23507 -0.426599,0.34825 l 0.744406,1.30161 h -0.670404 l -0.796651,-1.4235 0.383083,0.22637 H 36.10982 v 1.19713 z m 0.592058,-1.71952 h 0.622504 q 0.161076,0 0.278595,-0.0609 0.117519,-0.0653 0.182834,-0.17848 0.06531,-0.11319 0.06531,-0.2612 0,-0.15236 -0.06531,-0.26119 -0.06531,-0.11318 -0.182834,-0.17412 -0.117519,-0.0653 -0.278595,-0.0653 H 36.10982 Z" />
    <path
       id="path2163"
       style="font-style:normal;font-variant:normal;font-weight:bold;font-stretch:normal;font-size:10.82385159px;line-height:1.29999995;font-family:'Plus Jakarta Sans';-inkscape-font-specification:'Plus Jakarta Sans Bold';letter-spacing:0px;word-spacing:0px;fill:#ffffff;fill-opacity:1;stroke:none;stroke-width:0.40218645"
       d="m 38.882775,13.001224 v -2.72075 H 38.042608 V 9.7580841 h 2.263666 v 0.5223899 h -0.827097 v 2.72075 z" />
    <path
       id="path2165"
       style="font-style:normal;font-variant:normal;font-weight:bold;font-stretch:normal;font-size:10.82385159px;line-height:1.29999995;font-family:'Plus Jakarta Sans';-inkscape-font-specification:'Plus Jakarta Sans Bold';letter-spacing:0px;word-spacing:0px;fill:#ffffff;fill-opacity:1;stroke:none;stroke-width:0.40218645"
       d="M 40.667598,13.001224 V 9.7580841 h 1.205836 q 0.330838,0 0.583331,0.12189 0.256836,0.11754 0.400497,0.3482599 0.143661,0.22636 0.143661,0.55285 0,0.3352 -0.161076,0.57028 -0.156691,0.23507 -0.426599,0.34825 l 0.744407,1.30161 H 42.48725 l -0.79665,-1.4235 0.383082,0.22637 h -0.814025 v 1.19713 z m 0.592059,-1.71952 h 0.622504 q 0.161076,0 0.278595,-0.0609 0.117518,-0.0653 0.182833,-0.17848 0.06532,-0.11319 0.06532,-0.2612 0,-0.15236 -0.06532,-0.26119 -0.06531,-0.11318 -0.182833,-0.17412 -0.117519,-0.0653 -0.278595,-0.0653 h -0.622504 z" />
    <path
       id="path2167"
       style="font-style:normal;font-variant:normal;font-weight:bold;font-stretch:normal;font-size:10.82385159px;line-height:1.29999995;font-family:'Plus Jakarta Sans';-inkscape-font-specification:'Plus Jakarta Sans Bold';letter-spacing:0px;word-spacing:0px;fill:#ffffff;fill-opacity:1;stroke:none;stroke-width:0.40218645"
       d="M 43.279518,13.001224 44.39828,9.7580841 h 0.766165 l 1.118802,3.2431399 h -0.644303 l -0.230694,-0.69651 h -1.253736 l -0.235078,0.69651 z m 1.044759,-1.2189 h 0.91421 l -0.539814,-1.61504 h 0.165419 z" />
    <path
       id="path2169"
       style="font-style:normal;font-variant:normal;font-weight:bold;font-stretch:normal;font-size:10.82385159px;line-height:1.29999995;font-family:'Plus Jakarta Sans';-inkscape-font-specification:'Plus Jakarta Sans Bold';letter-spacing:0px;word-spacing:0px;fill:#ffffff;fill-opacity:1;stroke:none;stroke-width:0.40218645"
       d="M 46.644571,13.001224 V 9.7580841 h 0.592019 v 3.2431399 z" />
    <path
       id="path2171"
       style="font-style:normal;font-variant:normal;font-weight:bold;font-stretch:normal;font-size:10.82385159px;line-height:1.29999995;font-family:'Plus Jakarta Sans';-inkscape-font-specification:'Plus Jakarta Sans Bold';letter-spacing:0px;word-spacing:0px;fill:#ffffff;fill-opacity:1;stroke:none;stroke-width:0.40218645"
       d="m 48.433698,13.001224 v -2.72075 H 47.59353 V 9.7580841 h 2.263667 V 10.280474 H 49.0301 v 2.72075 z" />
    <path
       d="m 2.4945436,8.5027141 q -0.7272222,0 -1.2937801,-0.30442 Q 0.6426633,7.8938741 0.3213346,7.3611441 2e-6,6.8284141 2e-6,6.1519241 v -4.05045 h 1.1500273 v 3.99126 q 0,0.38898 0.169118,0.70186 0.1775797,0.31287 0.4819969,0.49045 0.3044172,0.16912 0.6933994,0.16912 0.397432,0 0.6933955,-0.16912 0.3044172,-0.17758 0.4735392,-0.49045 0.1775793,-0.31288 0.1775793,-0.70186 v -3.99126 h 1.150024 v 4.05045 q 0,0.67649 -0.321333,1.20922 -0.321329,0.53273 -0.887886,0.83715 -0.5581007,0.30442 -1.285319,0.30442 z"
       style="font-style:normal;font-variant:normal;font-weight:bold;font-stretch:normal;font-size:21.35591125px;line-height:1.29999995;font-family:'Plus Jakarta Sans';-inkscape-font-specification:'Plus Jakarta Sans Bold';letter-spacing:0px;word-spacing:0px;fill:#10a37c;fill-opacity:1;stroke:none;stroke-width:0.39595899"
       id="path2174" />
    <path
       d="m 6.1390926,8.4012441 v -6.29977 h 0.896344 l 3.4669854,4.66775 -0.465081,0.093 v -4.76077 h 1.150035 v 6.29977 h -0.90481 l -3.4162514,-4.70157 0.422801,-0.093 v 4.79459 z"
       style="font-style:normal;font-variant:normal;font-weight:bold;font-stretch:normal;font-size:21.35591125px;line-height:1.29999995;font-family:'Plus Jakarta Sans';-inkscape-font-specification:'Plus Jakarta Sans Bold';letter-spacing:0px;word-spacing:0px;fill:#10a37c;fill-opacity:1;stroke:none;stroke-width:0.39595899"
       id="path2176" />
    <path
       d="m 12.405029,8.4012441 v -6.29977 h 1.150023 v 5.28504 h 2.697471 v 1.01473 z"
       style="font-style:normal;font-variant:normal;font-weight:bold;font-stretch:normal;font-size:21.35591125px;line-height:1.29999995;font-family:'Plus Jakarta Sans';-inkscape-font-specification:'Plus Jakarta Sans Bold';letter-spacing:0px;word-spacing:0px;fill:#10a37c;fill-opacity:1;stroke:none;stroke-width:0.39595899"
       id="path2178" />
    <path
       d="m 19.930903,8.5027141 q -0.693364,0 -1.293757,-0.24523 -0.600392,-0.24522 -1.048539,-0.68494 -0.448186,-0.43971 -0.701877,-1.03164 -0.245217,-0.60038 -0.245217,-1.29377 0,-0.70186 0.245217,-1.29378 0.245218,-0.59193 0.693404,-1.03164 0.448186,-0.43972 1.048539,-0.67649 0.600392,-0.24522 1.30223,-0.24522 0.701876,0 1.302269,0.24522 0.600353,0.24523 1.048539,0.68494 0.448146,0.43126 0.693403,1.02319 0.253652,0.59192 0.253652,1.29378 0,0.69339 -0.253652,1.29377 -0.253691,0.59193 -0.701876,1.03164 -0.448147,0.43972 -1.048539,0.68494 -0.59192,0.24523 -1.293796,0.24523 z m 0,-1.04855 q 0.465093,0 0.854083,-0.16067 0.38899,-0.16912 0.676496,-0.46508 0.29594,-0.29596 0.448146,-0.70185 0.160681,-0.40589 0.160681,-0.87943 0,-0.47354 -0.160681,-0.87098 -0.152206,-0.40589 -0.448146,-0.70185 -0.287506,-0.30442 -0.676496,-0.46509 -0.38899,-0.16066 -0.854083,-0.16066 -0.45662,0 -0.845571,0.16066 -0.38899,0.16067 -0.684969,0.46509 -0.287506,0.29596 -0.448147,0.70185 -0.16068,0.39744 -0.16068,0.87098 0,0.47354 0.16068,0.87943 0.160641,0.40589 0.448147,0.70185 0.295979,0.29596 0.684969,0.46508 0.388951,0.16067 0.845571,0.16067 z"
       style="font-style:normal;font-variant:normal;font-weight:bold;font-stretch:normal;font-size:21.35591125px;line-height:1.29999995;font-family:'Plus Jakarta Sans';-inkscape-font-specification:'Plus Jakarta Sans Bold';letter-spacing:0px;word-spacing:0px;fill:#10a37c;fill-opacity:1;stroke:none;stroke-width:0.39595899"
       id="path2180" />
    <path
       d="m 27.211559,8.5027141 q -0.676457,0 -1.251468,-0.24523 -0.566578,-0.24522 -0.997817,-0.68494 -0.422805,-0.43971 -0.659588,-1.03164 -0.236784,-0.59192 -0.236784,-1.29377 0,-0.70186 0.22835,-1.29378 0.236744,-0.60038 0.659549,-1.03164 0.431278,-0.43972 1.00629,-0.67649 0.575011,-0.24522 1.251468,-0.24522 0.676496,0 1.209219,0.22831 0.541197,0.22832 0.913279,0.60884 0.372043,0.37206 0.532723,0.82024 l -1.031631,0.48199 q -0.177588,-0.47354 -0.600393,-0.77796 -0.422805,-0.31287 -1.023197,-0.31287 -0.591919,0 -1.048539,0.27905 -0.448186,0.27905 -0.701838,0.7695 -0.245257,0.49045 -0.245257,1.15003 0,0.65957 0.245257,1.15848 0.253652,0.49045 0.701838,0.7695 0.45662,0.27905 1.048539,0.27905 0.600392,0 1.023197,-0.30442 0.422805,-0.31287 0.600393,-0.78641 l 1.031631,0.48199 q -0.16068,0.44817 -0.532723,0.8287 -0.372082,0.37207 -0.913279,0.60038 -0.532723,0.22831 -1.209219,0.22831 z"
       style="font-style:normal;font-variant:normal;font-weight:bold;font-stretch:normal;font-size:21.35591125px;line-height:1.29999995;font-family:'Plus Jakarta Sans';-inkscape-font-specification:'Plus Jakarta Sans Bold';letter-spacing:0px;word-spacing:0px;fill:#10a37c;fill-opacity:1;stroke:none;stroke-width:0.39595899"
       id="path2182" />
    <path
       d="m 30.796928,8.4012441 v -6.29977 h 1.150023 v 3.28095 l -0.312887,-0.10992 2.680603,-3.17103 h 1.445963 l -2.511449,2.97653 0.06767,-0.81178 2.519883,4.13502 h -1.352952 l -1.69122,-2.77359 -0.84561,1.00627 v 1.76732 z"
       style="font-style:normal;font-variant:normal;font-weight:bold;font-stretch:normal;font-size:21.35591125px;line-height:1.29999995;font-family:'Plus Jakarta Sans';-inkscape-font-specification:'Plus Jakarta Sans Bold';letter-spacing:0px;word-spacing:0px;fill:#10a37c;fill-opacity:1;stroke:none;stroke-width:0.39595899"
       id="path2184" />
    <path
       d="m 36.53861,8.4012441 v -6.29977 h 1.150023 v 6.29977 z"
       style="font-style:normal;font-variant:normal;font-weight:bold;font-stretch:normal;font-size:21.35591125px;line-height:1.29999995;font-family:'Plus Jakarta Sans';-inkscape-font-specification:'Plus Jakarta Sans Bold';letter-spacing:0px;word-spacing:0px;fill:#10a37c;fill-opacity:1;stroke:none;stroke-width:0.39595899"
       id="path2186" />
    <path
       d="m 38.897813,8.4012441 v -6.29977 h 0.896372 l 3.466977,4.66775 -0.465093,0.093 v -4.76077 h 1.150023 v 6.29977 h -0.904806 l -3.416255,-4.70157 0.422805,-0.093 v 4.79459 z"
       style="font-style:normal;font-variant:normal;font-weight:bold;font-stretch:normal;font-size:21.35591125px;line-height:1.29999995;font-family:'Plus Jakarta Sans';-inkscape-font-specification:'Plus Jakarta Sans Bold';letter-spacing:0px;word-spacing:0px;fill:#10a37c;fill-opacity:1;stroke:none;stroke-width:0.39595899"
       id="path2188" />
    <rect
       transform="scale(1,-1)"
       y="-7.6212955"
       x="51.846043"
       height="1.8579705"
       width="0.96614468"
       id="rect2097"
       style="opacity:1;fill:#004489;fill-opacity:1;stroke:none;stroke-width:0.14044502;stroke-linecap:round;stroke-miterlimit:4;stroke-dasharray:none;stroke-dashoffset:0;stroke-opacity:1" />
    <rect
       transform="scale(1,-1)"
       style="opacity:1;fill:#003b88;fill-opacity:1;stroke:none;stroke-width:0.15889539;stroke-linecap:round;stroke-miterlimit:4;stroke-dasharray:none;stroke-dashoffset:0;stroke-opacity:1"
       id="rect2099"
       width="0.96614468"
       height="2.3782022"
       x="52.812187"
       y="-8.1414986" />
    <rect
       transform="scale(1,-1)"
       y="-7.5098147"
       x="53.778332"
       height="1.7464923"
       width="0.96614468"
       id="rect2101"
       style="opacity:1;fill:#004e9c;fill-opacity:1;stroke:none;stroke-width:0.1361665;stroke-linecap:round;stroke-miterlimit:4;stroke-dasharray:none;stroke-dashoffset:0;stroke-opacity:1" />
    <rect
       transform="scale(1,-1)"
       style="opacity:1;fill:#004e9c;fill-opacity:1;stroke:none;stroke-width:0.14459699;stroke-linecap:round;stroke-miterlimit:4;stroke-dasharray:none;stroke-dashoffset:0;stroke-opacity:1"
       id="rect2103"
       width="0.96614468"
       height="1.9694487"
       x="54.744476"
       y="-7.7327456" />
    <rect
       style="opacity:1;fill:#4e6e55;fill-opacity:1;stroke:none;stroke-width:0.12243713;stroke-linecap:round;stroke-miterlimit:4;stroke-dasharray:none;stroke-dashoffset:0;stroke-opacity:1"
       id="rect2109"
       width="0.96614468"
       height="1.4120576"
       x="52.812187"
       y="4.3512454" />
    <rect
       y="3.3851202"
       x="53.778332"
       height="2.3782022"
       width="0.96614468"
       id="rect2111"
       style="opacity:1;fill:#4f8760;fill-opacity:1;stroke:none;stroke-width:0.15889539;stroke-linecap:round;stroke-miterlimit:4;stroke-dasharray:none;stroke-dashoffset:0;stroke-opacity:1" />
    <rect
       style="opacity:1;fill:#3ca57e;fill-opacity:1;stroke:none;stroke-width:0.10711618;stroke-linecap:round;stroke-miterlimit:4;stroke-dasharray:none;stroke-dashoffset:0;stroke-opacity:1"
       id="rect2113"
       width="0.96614468"
       height="1.0807774"
       x="54.744476"
       y="4.6825442" />
    <rect
       style="opacity:1;fill:#10a67e;fill-opacity:1;stroke:none;stroke-width:0.49318776;stroke-linecap:round;stroke-miterlimit:4;stroke-dasharray:none;stroke-dashoffset:0;stroke-opacity:1"
       id="rect2121"
       width="6.335711"
       height="0.97557515"
       x="50.341053"
       y="5.3051333" />
    <path
       style="opacity:1;fill:none;fill-opacity:1;stroke:#10a67e;stroke-width:0.85000002;stroke-linecap:butt;stroke-miterlimit:4;stroke-dasharray:none;stroke-dashoffset:0;stroke-opacity:1"
       d="m 50.157201,5.3000641 c 0,1.46146 -1.184745,2.64621 -2.646202,2.64621 -1.461458,0 -2.646203,-1.18475 -2.646203,-2.64621 0,-0.73073 0.296187,-1.39228 0.775055,-1.87114 0.478869,-0.47887 1.140419,-0.77506 1.871148,-0.77506 0.730728,0 1.392278,0.29619 1.871147,0.77506 0.239434,0.23943 0.433198,0.52454 0.567103,0.84112"
       id="path2127" />
    <path
       d="m 50.857619,5.3240141 c 0,0.46226 -0.08456,0.89352 -0.253679,1.29377 -0.169122,0.39462 -0.403074,0.7385 -0.701853,1.03164 -0.298783,0.29315 -0.6483,0.52146 -1.048555,0.68494 -0.394616,0.16349 -0.825875,0.24523 -1.293776,0.24523 -0.462266,0 -0.893525,-0.0817 -1.29378,-0.24523 -0.400255,-0.16348 -0.749772,-0.39179 -1.048551,-0.68494 -0.298779,-0.29314 -0.532731,-0.63702 -0.701853,-1.03164 -0.163484,-0.40025 -0.245225,-0.83151 -0.245225,-1.29377 0,-0.4679 0.08174,-0.89917 0.245225,-1.29378 0.163483,-0.39462 0.394617,-0.7385 0.693395,-1.03164 0.298783,-0.29314 0.6483,-0.51864 1.048555,-0.67649 0.400255,-0.16348 0.834333,-0.24522 1.302234,-0.24522 0.467901,0 0.901979,0.0817 1.302234,0.24522 0.400255,0.16349 0.749772,0.3918 1.048551,0.68495 0.298779,0.2875 0.529912,0.62856 0.693399,1.02318 l -1.065466,0.4228 c -0.101472,-0.27059 -0.250864,-0.50454 -0.44817,-0.70185 -0.191672,-0.20295 -0.417167,-0.35798 -0.676484,-0.46509 -0.259322,-0.10711 -0.544008,-0.16066 -0.854064,-0.16066 -0.304417,0 -0.586288,0.0536 -0.845606,0.16066 -0.259317,0.10711 -0.487631,0.26214 -0.684942,0.46509 -0.191672,0.19731 -0.341063,0.43126 -0.448174,0.70185 -0.107111,0.26496 -0.160664,0.55528 -0.160664,0.87098 0,0.31569 0.05355,0.60883 0.160664,0.87943 0.107111,0.27059 0.256502,0.50454 0.448174,0.70185 0.197311,0.19731 0.425625,0.35234 0.684942,0.46508 0.259318,0.10712 0.541189,0.16067 0.845606,0.16067 0.310056,0 0.594742,-0.0535 0.854064,-0.16067 0.259317,-0.11274 0.484812,-0.26777 0.676484,-0.46508 0.197306,-0.19731 0.346698,-0.43126 0.44817,-0.70185 0.107111,-0.2706 0.160664,-0.56374 0.160664,-0.87943 z"
       style="font-style:normal;font-variant:normal;font-weight:bold;font-stretch:normal;font-size:21.35591125px;line-height:1.29999995;font-family:'Plus Jakarta Sans';-inkscape-font-specification:'Plus Jakarta Sans Bold';letter-spacing:0px;word-spacing:0px;fill:#10a37c;fill-opacity:1;stroke:none;stroke-width:0.39595899"
       id="path2204" />
    <path
       style="opacity:1;fill:none;fill-opacity:1;stroke:#10a67e;stroke-width:0.17999999;stroke-linecap:round;stroke-miterlimit:4;stroke-dasharray:none;stroke-dashoffset:0;stroke-opacity:1"
       d="m 46.960333,4.1369541 c -0.561323,0.29049 0.02786,1.60353 0.242596,1.97547 0.214741,0.37195 0.690338,0.49939 1.062282,0.28465 0.371943,-0.21475 0.499386,-0.69035 0.284644,-1.06229 -0.214742,-0.37195 -1.028199,-1.48832 -1.589522,-1.19783 z"
       id="path2034" />
    <circle
       r="0.39333305"
       cy="5.3208194"
       cx="47.589832"
       id="circle2191"
       style="opacity:1;fill:#10a67e;fill-opacity:1;stroke:none;stroke-width:1.15531075;stroke-linecap:butt;stroke-miterlimit:4;stroke-dasharray:none;stroke-dashoffset:0;stroke-opacity:1" />
    <path
       id="path1205"
       d="m 48.696216,4.6041841 c -0.290494,-0.56132 -1.60353,0.0279 -1.975472,0.2426 -0.371945,0.21474 -0.499386,0.69034 -0.284644,1.06228 0.214742,0.37194 0.690348,0.49939 1.062291,0.28464 0.371943,-0.21474 1.488318,-1.02819 1.197825,-1.58952 z"
       style="opacity:1;fill:none;fill-opacity:1;stroke:#10a67e;stroke-width:0.17999999;stroke-linecap:round;stroke-miterlimit:4;stroke-dasharray:none;stroke-dashoffset:0;stroke-opacity:1" />
  </g>
</svg>
